<svg xmlns="http://www.w3.org/2000/svg" viewBox="0 0 444.06 122.68">
  <defs>
    <style>
      .cls-1 {
        fill: #fff;
      }
    </style>
  </defs>
  <g>
    <g>
      <g>
        <path class="cls-1" d="M165.18,55.66c41.57,0,46.93-20.23,46.93-26.53,0-5.77-6.49-27.51-46.93-27.51s-46.93,21-46.93,27.51C118.25,35.07,123.79,55.66,165.18,55.66Zm0-43.58c13.95,0,27.93,7.94,28.07,16.56.16,10.15-14,16.57-28.1,16.57-13.34,0-28.07-6.72-28.07-16.57C137.08,18.4,150.33,12.08,165.18,12.08Z"/>
        <path class="cls-1" d="M51.2,51.35h0v9.49a.54.54,0,0,0,.53.54H68.75a.54.54,0,0,0,.54-.54V51.31h0V36.5H84.84V51.35h0v9.49a.54.54,0,0,0,.54.54h16a.54.54,0,0,0,.54-.54v-.17h0V31h0V8A18.78,18.78,0,0,1,103.73.39c.14-.16-.06-.37-.15-.37H82.13A.2.2,0,0,0,82,.33h0c1.13,1.82,2.78,5.76,2.78,7.91V26.11H69.29V9.47a.69.69,0,0,0-.61-.63H10.56c-4.17-.27-9-1-10.14-2,0,0-.2-.11-.3,0S0,7.06,0,7.06l6.11,12.1a3.16,3.16,0,0,0,.77.79,3.25,3.25,0,0,0,1.39.32H51.2Z"/>
        <path class="cls-1" d="M138.56,73.23H215v0a.77.77,0,0,0,.51-.69l3.83-11.16s0-.41-.21-.41H111.05c-.19,0-.21.41-.21.41l.32,1.44h0l2.13,9.71c0,.29.28.71.62.71h24.66Z"/>
        <path class="cls-1" d="M286.46,109.11,251.24,5.59A3.25,3.25,0,0,0,249.62,5a2.22,2.22,0,0,0-1.52.46L211.31,113.53h0l-.4,1.19a.39.39,0,0,0,.35.37h20.2a.43.43,0,0,0,.36-.66l-.47-.75c-.69-1.11-1.42-2.1-1-3.63h0l19.34-56.93,19.41,57.13c.56,2.06-.25,2.36-.91,3.41l-.65.77a.43.43,0,0,0,.36.66H288a.4.4,0,0,0,.35-.37l-1.91-5.62Z"/>
        <path class="cls-1" d="M207.57,94.59s-2.45,2.27-3.6,3.11a16.61,16.61,0,0,1-3.63,2,19.31,19.31,0,0,1-4.09,1.07c-.82.12-1.69.21-2.61.26h-59l0-17.11h0v-4.6a.68.68,0,0,0-.6-.63H119.17a.68.68,0,0,0-.6.63v1.93h0v30.56h0v2.61a.68.68,0,0,0,.6.64h81.38c.25,0,.6-.45.69-.71l1-3,6.05-16.7S208.1,94.39,207.57,94.59Z"/>
        <path class="cls-1" d="M102.34,106.93c0-.22-.08-.39-.1-.51V68a.48.48,0,0,0-.48-.48H8.66a.36.36,0,0,0-.34.48l2.28,6.66a35.48,35.48,0,0,1,1.94,11.6v28.22a.68.68,0,0,0,.6.64h88.62a.53.53,0,0,0,.12,0v0h2.38s.83-.15.4-.69C103.21,112.56,102.63,108.69,102.34,106.93Zm-15.91-5.74-57.88,0V78.46h57.9Z"/>
      </g>
      <g>
        <path class="cls-1" d="M323.26,33H309V31h0V8A18,18,0,0,1,310.83.4c.14-.15-.06-.36-.15-.36H289.11a.21.21,0,0,0-.18.31h0c1.14,1.83,2.81,5.74,2.81,7.89V30.7h0V33h-3.3c-.18,0-.2.36-.2.36l.3,1.29,2.05,8.67a.68.68,0,0,0,.6.63h.54L291.63,110a6.87,6.87,0,0,1-1,3.64l-.47.75a.42.42,0,0,0,.36.65h22s1-.18.47-.81a32.69,32.69,0,0,1-4.09-7.26l.08-63.1h11.66a.71.71,0,0,0,.49-.62l.5-2.08,1.86-7.88S323.45,33,323.26,33Z"/>
        <path class="cls-1" d="M332.2,27.18V67.7a.68.68,0,0,0,.6.63h68.31a.68.68,0,0,0,.6-.63V58.41h0l-.09-49.5a.48.48,0,0,0-.48-.48h-72.4a.37.37,0,0,0-.34.49l1.87,6.65A35.79,35.79,0,0,1,332.2,27.18ZM386,19.45V55.63H348.15l0-36.18Z"/>
        <path class="cls-1" d="M443.85,33H429V29.45h.06V8A14.76,14.76,0,0,1,432,.27V.22A.17.17,0,0,0,431.8,0H409.61a.24.24,0,0,0-.2.37,24.76,24.76,0,0,1,2.66,7V33h-3c-.19,0-.21.36-.21.36l2.35,10c.05.27.38.63.6.63h.3V67.79a.54.54,0,0,0,.54.53h15.77a.54.54,0,0,0,.54-.53V43.91H441.2a.72.72,0,0,0,.5-.62l2.36-10S444,33,443.85,33Z"/>
        <path class="cls-1" d="M429,110.13l0-18.48h0l0-7.65V75a.68.68,0,0,0-.6-.64H329.66s-.44,0-.44,1c.49,2.22,6.63,9.73,8.4,11.22a1.51,1.51,0,0,0,.68.32c.14,0,.72.07.72.07h72.92v17l.05,0v5.14a4.23,4.23,0,0,0,.46,1.9,4.57,4.57,0,0,0,1.18,1l17,10.57s.3,0,.39-.16-.06-.41-.06-.41C429.47,120.59,429.37,115.81,429,110.13Z"/>
      </g>
    </g>
  </g>
</svg>
