<?xml version="1.0" encoding="utf-8"?>
<!-- Generator: Adobe Illustrator 16.0.0, SVG Export Plug-In . SVG Version: 6.00 Build 0)  -->
<!DOCTYPE svg PUBLIC "-//W3C//DTD SVG 1.1//EN" "http://www.w3.org/Graphics/SVG/1.1/DTD/svg11.dtd">
<svg version="1.1" id="Layer_1" xmlns="http://www.w3.org/2000/svg" xmlns:xlink="http://www.w3.org/1999/xlink" x="0px" y="0px"
	 width="463.541px" height="54.328px" viewBox="0 0 463.541 54.328" enable-background="new 0 0 463.541 54.328"
	 xml:space="preserve">
<g>
	<path fill="#FFFFFF" d="M0,0.83h11.663c7.581,0,11.372,4.995,11.372,14.983c0,3.984-0.671,7.118-2.013,9.401
		c-1.343,2.281-3.017,3.721-5.022,4.316c-2.006,0.595-4.959,0.92-8.861,0.975v23.202H0V0.83z M7.139,24.986
		c3.016,0,5.174-0.609,6.475-1.826c1.3-1.218,1.951-3.667,1.951-7.347c0-3.708-0.567-6.226-1.702-7.554
		c-1.135-1.328-3.376-1.992-6.724-1.992V24.986z"/>
	<path fill="#FFFFFF" d="M67.593,53.707H48.46V0.83h18.801v6.018H55.516v16.768H66.39v6.019H55.516v18.219h12.078V53.707z"/>
	<path fill="#FFFFFF" d="M119.996,53.707h-6.881l-1.935-10.459H99.988l-1.96,10.459h-6.793L102.647,0.83h5.852L119.996,53.707z
		 M110.229,37.893l-4.647-25.087h-0.17l-4.395,25.087H110.229z"/>
	<path fill="#FFFFFF" d="M168.664,53.707h-7.406l-8.283-24.821h-0.623v24.821h-7.139V0.83h9.878c8.052,0,12.078,4.51,12.078,13.53
		c0,4.095-0.595,7.18-1.785,9.255c-1.19,2.075-3.126,3.639-5.81,4.69L168.664,53.707z M152.353,24.031
		c2.767-0.055,4.766-0.712,5.998-1.971c1.23-1.259,1.847-3.549,1.847-6.869c0-3.182-0.561-5.451-1.681-6.807
		c-1.121-1.355-3.037-2.034-5.749-2.034h-0.415V24.031z"/>
	<path fill="#FFFFFF" d="M212.392,53.707h-19.133V0.83h7.139v46.941h11.995V53.707z"/>
	<path fill="#FFFFFF" d="M277.71,53.707h-6.881l-1.935-10.459h-11.192l-1.96,10.459h-6.794L260.362,0.83h5.852L277.71,53.707z
		 M267.942,37.893l-4.646-25.087h-0.17l-4.396,25.087H267.942z"/>
	<path fill="#FFFFFF" d="M303.095,0.83h8.343c4.537,0,7.886,1.114,10.044,3.341c2.158,2.228,3.237,5.707,3.237,10.438
		c0,6.696-2.56,10.943-7.679,12.742c5.563,1.135,8.343,5.534,8.343,13.198c0,4.207-1.011,7.451-3.03,9.734
		c-2.02,2.281-4.896,3.424-8.633,3.424h-10.625V0.83z M310.151,6.267v18.387c2.711-0.084,4.683-0.789,5.914-2.117
		c1.23-1.328,1.847-3.638,1.847-6.931c0-3.569-0.533-6.018-1.598-7.346C315.249,6.931,313.194,6.267,310.151,6.267z M310.151,29.924
		v18.427c2.822-0.055,4.835-0.67,6.038-1.846c1.204-1.176,1.806-3.48,1.806-6.91c0-3.653-0.609-6.17-1.826-7.555
		C314.951,30.658,312.945,29.953,310.151,29.924z"/>
	<path fill="#FFFFFF" d="M375.212,0.83l-10.293,30.339v22.538h-7.139V31.501L347.737,0.83h7.075l6.575,23.825l0.155-0.071
		L368.2,0.83H375.212z"/>
	<path fill="#FFFFFF" d="M417.114,7.637c-2.324-1.245-4.413-1.868-6.267-1.868c-1.854,0-3.438,0.664-4.752,1.992
		c-1.314,1.328-1.972,2.932-1.972,4.813c0,1.328,0.391,2.746,1.174,4.253c0.782,1.507,2.547,3.919,5.292,7.234
		c2.745,3.315,4.844,6.191,6.297,8.629c1.452,2.438,2.179,5.233,2.179,8.389c0,3.934-1.183,7.125-3.549,9.574
		c-2.365,2.451-5.457,3.676-9.275,3.676c-2.104,0-4.677-0.621-7.721-1.867v-6.35c0.084,0.027,0.166,0.068,0.25,0.125
		c0.414,0.305,1.286,0.768,2.614,1.391c1.328,0.621,2.628,0.934,3.901,0.934c2.075,0,3.783-0.691,5.126-2.076
		c1.342-1.383,2.013-3.154,2.013-5.313c0-1.494-0.342-2.877-1.025-4.151s-1.923-3.005-3.718-5.195l-4.766-5.861
		c-1.851-2.273-3.22-4.351-4.104-6.234c-0.886-1.883-1.328-4.126-1.328-6.729c0-3.849,1.121-6.978,3.361-9.387
		C403.087,1.205,405.991,0,409.562,0c2.49,0,5.007,0.623,7.553,1.868V7.637z"/>
	<path fill="#FFFFFF" d="M461.59,7.637c-2.324-1.245-4.413-1.868-6.267-1.868c-1.854,0-3.438,0.664-4.752,1.992
		c-1.314,1.328-1.972,2.932-1.972,4.813c0,1.328,0.391,2.746,1.174,4.253c0.782,1.507,2.547,3.919,5.292,7.234
		c2.745,3.315,4.844,6.191,6.297,8.629c1.452,2.438,2.179,5.233,2.179,8.389c0,3.934-1.183,7.125-3.549,9.574
		c-2.365,2.451-5.457,3.676-9.275,3.676c-2.104,0-4.677-0.621-7.721-1.867v-6.35c0.084,0.027,0.166,0.068,0.25,0.125
		c0.414,0.305,1.286,0.768,2.614,1.391c1.328,0.621,2.628,0.934,3.901,0.934c2.075,0,3.783-0.691,5.126-2.076
		c1.342-1.383,2.013-3.154,2.013-5.313c0-1.494-0.342-2.877-1.025-4.151s-1.923-3.005-3.718-5.195l-4.766-5.861
		c-1.851-2.273-3.22-4.351-4.104-6.234c-0.886-1.883-1.328-4.126-1.328-6.729c0-3.849,1.121-6.978,3.361-9.387
		C447.563,1.205,450.467,0,454.037,0c2.49,0,5.007,0.623,7.553,1.868V7.637z"/>
</g>
</svg>
